<?xml version="1.0" encoding="UTF-8"?>
<svg xmlns="http://www.w3.org/2000/svg" version="1.1" width="300" height="300" viewBox="0 0 300 300"><rect x="0" y="0" width="300" height="300" fill="#ffffff"/><g transform="scale(8.571)"><g transform="translate(1,1)"><path fill-rule="evenodd" d="M10 0L10 2L11 2L11 0ZM12 0L12 1L13 1L13 2L12 2L12 4L13 4L13 5L11 5L11 6L10 6L10 4L11 4L11 3L8 3L8 4L9 4L9 5L8 5L8 7L9 7L9 8L6 8L6 9L7 9L7 10L4 10L4 9L5 9L5 8L0 8L0 9L3 9L3 10L4 10L4 13L3 13L3 12L2 12L2 10L1 10L1 12L2 12L2 13L1 13L1 15L0 15L0 16L1 16L1 17L3 17L3 14L4 14L4 15L5 15L5 16L4 16L4 18L5 18L5 19L4 19L4 21L3 21L3 20L2 20L2 19L1 19L1 18L0 18L0 25L1 25L1 21L3 21L3 22L2 22L2 23L3 23L3 22L4 22L4 23L8 23L8 24L5 24L5 25L8 25L8 27L9 27L9 25L8 25L8 24L10 24L10 25L11 25L11 26L12 26L12 27L11 27L11 28L12 28L12 27L13 27L13 25L15 25L15 24L17 24L17 25L19 25L19 26L20 26L20 27L21 27L21 28L20 28L20 29L19 29L19 28L17 28L17 29L16 29L16 27L18 27L18 26L14 26L14 28L13 28L13 29L11 29L11 30L9 30L9 29L10 29L10 28L8 28L8 33L10 33L10 32L13 32L13 33L14 33L14 32L13 32L13 31L11 31L11 30L13 30L13 29L14 29L14 31L15 31L15 33L19 33L19 32L16 32L16 30L17 30L17 29L19 29L19 30L18 30L18 31L19 31L19 30L20 30L20 29L21 29L21 28L23 28L23 27L24 27L24 31L23 31L23 30L22 30L22 31L21 31L21 32L20 32L20 33L21 33L21 32L24 32L24 33L25 33L25 32L24 32L24 31L27 31L27 30L29 30L29 32L31 32L31 33L32 33L32 32L31 32L31 31L32 31L32 30L31 30L31 29L32 29L32 28L33 28L33 27L32 27L32 26L33 26L33 24L32 24L32 26L31 26L31 27L30 27L30 25L29 25L29 24L31 24L31 23L32 23L32 22L33 22L33 21L32 21L32 20L31 20L31 19L32 19L32 18L33 18L33 17L32 17L32 16L31 16L31 15L32 15L32 14L33 14L33 13L31 13L31 15L30 15L30 13L29 13L29 12L28 12L28 11L29 11L29 10L28 10L28 11L27 11L27 12L28 12L28 13L29 13L29 14L28 14L28 16L27 16L27 13L25 13L25 14L26 14L26 16L27 16L27 17L25 17L25 16L24 16L24 17L23 17L23 14L24 14L24 13L23 13L23 12L25 12L25 11L26 11L26 10L27 10L27 9L28 9L28 8L27 8L27 9L26 9L26 8L25 8L25 6L24 6L24 8L23 8L23 5L24 5L24 4L25 4L25 3L24 3L24 2L25 2L25 1L24 1L24 0L22 0L22 1L20 1L20 0L16 0L16 1L15 1L15 3L17 3L17 4L18 4L18 5L20 5L20 7L21 7L21 8L20 8L20 9L19 9L19 8L17 8L17 9L16 9L16 8L13 8L13 9L12 9L12 7L13 7L13 5L15 5L15 6L14 6L14 7L15 7L15 6L16 6L16 7L17 7L17 5L15 5L15 4L14 4L14 3L13 3L13 2L14 2L14 1L13 1L13 0ZM8 1L8 2L9 2L9 1ZM17 1L17 3L18 3L18 4L20 4L20 5L21 5L21 7L22 7L22 5L23 5L23 4L24 4L24 3L21 3L21 4L20 4L20 3L19 3L19 2L20 2L20 1ZM22 1L22 2L24 2L24 1ZM9 6L9 7L10 7L10 6ZM11 6L11 7L12 7L12 6ZM18 6L18 7L19 7L19 6ZM10 8L10 9L9 9L9 12L11 12L11 13L9 13L9 14L10 14L10 15L11 15L11 14L14 14L14 15L12 15L12 16L15 16L15 17L13 17L13 18L14 18L14 19L12 19L12 17L11 17L11 18L9 18L9 17L10 17L10 16L9 16L9 17L8 17L8 18L7 18L7 17L6 17L6 16L8 16L8 14L7 14L7 13L8 13L8 11L5 11L5 14L7 14L7 15L6 15L6 16L5 16L5 17L6 17L6 18L7 18L7 19L5 19L5 21L4 21L4 22L5 22L5 21L6 21L6 22L9 22L9 23L11 23L11 25L13 25L13 24L15 24L15 22L17 22L17 24L21 24L21 25L20 25L20 26L21 26L21 25L22 25L22 26L24 26L24 25L22 25L22 24L21 24L21 23L24 23L24 24L28 24L28 23L30 23L30 22L31 22L31 20L29 20L29 21L27 21L27 19L26 19L26 18L25 18L25 17L24 17L24 18L23 18L23 19L24 19L24 20L23 20L23 21L24 21L24 22L21 22L21 23L20 23L20 22L17 22L17 21L16 21L16 20L19 20L19 21L22 21L22 20L19 20L19 19L21 19L21 17L22 17L22 16L21 16L21 15L22 15L22 14L23 14L23 13L22 13L22 12L23 12L23 11L24 11L24 10L25 10L25 9L24 9L24 10L23 10L23 9L22 9L22 8L21 8L21 9L20 9L20 10L19 10L19 9L17 9L17 10L16 10L16 9L13 9L13 10L12 10L12 9L11 9L11 8ZM29 8L29 9L30 9L30 8ZM31 8L31 10L33 10L33 9L32 9L32 8ZM10 9L10 11L11 11L11 9ZM15 10L15 11L14 11L14 12L13 12L13 11L12 11L12 13L14 13L14 14L15 14L15 16L16 16L16 17L19 17L19 18L20 18L20 17L21 17L21 16L20 16L20 17L19 17L19 14L21 14L21 13L19 13L19 12L20 12L20 11L21 11L21 12L22 12L22 10L20 10L20 11L19 11L19 10L17 10L17 11L16 11L16 10ZM17 11L17 12L18 12L18 11ZM30 11L30 12L31 12L31 11ZM6 12L6 13L7 13L7 12ZM14 12L14 13L15 13L15 14L16 14L16 16L18 16L18 15L17 15L17 14L19 14L19 13L15 13L15 12ZM29 15L29 17L27 17L27 18L28 18L28 19L29 19L29 17L30 17L30 19L31 19L31 16L30 16L30 15ZM8 18L8 20L6 20L6 21L8 21L8 20L9 20L9 22L12 22L12 23L13 23L13 21L14 21L14 22L15 22L15 21L14 21L14 20L13 20L13 21L10 21L10 20L9 20L9 18ZM15 18L15 20L16 20L16 18ZM17 18L17 19L18 19L18 18ZM24 18L24 19L25 19L25 18ZM11 19L11 20L12 20L12 19ZM25 21L25 22L27 22L27 23L28 23L28 22L27 22L27 21ZM29 21L29 22L30 22L30 21ZM3 24L3 25L4 25L4 24ZM25 25L25 28L28 28L28 25ZM26 26L26 27L27 27L27 26ZM14 28L14 29L15 29L15 30L16 30L16 29L15 29L15 28ZM29 28L29 30L30 30L30 31L31 31L31 30L30 30L30 29L31 29L31 28ZM25 29L25 30L27 30L27 29ZM9 31L9 32L10 32L10 31ZM27 32L27 33L28 33L28 32ZM0 0L0 7L7 7L7 0ZM1 1L1 6L6 6L6 1ZM2 2L2 5L5 5L5 2ZM26 0L26 7L33 7L33 0ZM27 1L27 6L32 6L32 1ZM28 2L28 5L31 5L31 2ZM0 26L0 33L7 33L7 26ZM1 27L1 32L6 32L6 27ZM2 28L2 31L5 31L5 28Z" fill="#000000"/></g></g></svg>
