<?xml version="1.0" encoding="UTF-8"?>
<svg xmlns="http://www.w3.org/2000/svg" version="1.1" width="300" height="300" viewBox="0 0 300 300"><rect x="0" y="0" width="300" height="300" fill="#ffffff"/><g transform="scale(8.571)"><g transform="translate(1,1)"><path fill-rule="evenodd" d="M9 0L9 1L8 1L8 2L9 2L9 3L8 3L8 4L9 4L9 5L8 5L8 7L9 7L9 8L6 8L6 9L5 9L5 8L0 8L0 10L1 10L1 11L2 11L2 12L3 12L3 10L5 10L5 12L4 12L4 13L5 13L5 14L3 14L3 13L1 13L1 12L0 12L0 13L1 13L1 14L0 14L0 16L1 16L1 18L3 18L3 19L2 19L2 22L3 22L3 23L2 23L2 24L3 24L3 23L4 23L4 24L5 24L5 25L8 25L8 27L9 27L9 26L10 26L10 28L8 28L8 33L10 33L10 32L11 32L11 31L10 31L10 30L13 30L13 31L12 31L12 33L20 33L20 32L24 32L24 33L25 33L25 32L24 32L24 31L27 31L27 30L29 30L29 32L31 32L31 33L32 33L32 32L31 32L31 31L32 31L32 30L31 30L31 29L33 29L33 28L32 28L32 26L33 26L33 24L32 24L32 26L31 26L31 27L30 27L30 25L29 25L29 24L31 24L31 23L32 23L32 22L33 22L33 21L32 21L32 20L31 20L31 19L32 19L32 18L33 18L33 17L32 17L32 16L31 16L31 15L32 15L32 14L33 14L33 13L31 13L31 15L30 15L30 13L29 13L29 12L28 12L28 11L29 11L29 10L28 10L28 11L27 11L27 12L28 12L28 13L29 13L29 14L28 14L28 16L27 16L27 13L25 13L25 14L26 14L26 16L27 16L27 17L25 17L25 16L24 16L24 17L23 17L23 15L22 15L22 13L23 13L23 14L24 14L24 13L23 13L23 12L25 12L25 11L26 11L26 10L27 10L27 9L28 9L28 8L27 8L27 9L26 9L26 8L25 8L25 6L24 6L24 8L23 8L23 5L24 5L24 4L25 4L25 3L24 3L24 2L25 2L25 1L24 1L24 0L22 0L22 1L20 1L20 0L19 0L19 1L18 1L18 0L17 0L17 1L18 1L18 2L19 2L19 1L20 1L20 2L21 2L21 3L20 3L20 4L18 4L18 3L17 3L17 2L16 2L16 1L14 1L14 0ZM11 1L11 2L10 2L10 3L9 3L9 4L12 4L12 5L9 5L9 7L10 7L10 9L6 9L6 10L9 10L9 12L11 12L11 13L9 13L9 14L7 14L7 13L6 13L6 14L7 14L7 15L5 15L5 16L4 16L4 15L1 15L1 16L3 16L3 17L4 17L4 19L3 19L3 20L7 20L7 21L6 21L6 22L5 22L5 21L3 21L3 22L4 22L4 23L5 23L5 24L10 24L10 22L11 22L11 25L12 25L12 26L11 26L11 28L10 28L10 29L11 29L11 28L12 28L12 29L13 29L13 30L14 30L14 29L15 29L15 30L16 30L16 31L13 31L13 32L16 32L16 31L17 31L17 32L20 32L20 30L18 30L18 29L21 29L21 30L22 30L22 31L24 31L24 27L22 27L22 28L21 28L21 27L20 27L20 26L17 26L17 25L15 25L15 24L19 24L19 25L21 25L21 26L24 26L24 25L22 25L22 24L21 24L21 23L20 23L20 22L19 22L19 21L20 21L20 20L21 20L21 22L22 22L22 23L24 23L24 24L28 24L28 23L30 23L30 22L31 22L31 20L29 20L29 21L27 21L27 19L26 19L26 18L25 18L25 17L24 17L24 18L23 18L23 17L22 17L22 16L20 16L20 15L21 15L21 13L22 13L22 12L23 12L23 11L24 11L24 10L25 10L25 9L24 9L24 10L23 10L23 9L22 9L22 8L21 8L21 7L22 7L22 5L23 5L23 4L24 4L24 3L21 3L21 4L20 4L20 5L18 5L18 4L15 4L15 3L16 3L16 2L15 2L15 3L14 3L14 1ZM22 1L22 2L24 2L24 1ZM11 2L11 3L12 3L12 4L13 4L13 5L12 5L12 7L13 7L13 5L15 5L15 6L14 6L14 8L13 8L13 9L11 9L11 10L10 10L10 11L11 11L11 12L12 12L12 13L11 13L11 14L12 14L12 13L18 13L18 14L14 14L14 15L16 15L16 16L15 16L15 17L14 17L14 16L13 16L13 15L9 15L9 16L8 16L8 15L7 15L7 16L5 16L5 18L6 18L6 19L7 19L7 18L6 18L6 17L9 17L9 19L10 19L10 20L8 20L8 21L7 21L7 22L6 22L6 23L7 23L7 22L9 22L9 21L11 21L11 22L14 22L14 24L12 24L12 25L14 25L14 26L13 26L13 27L12 27L12 28L13 28L13 29L14 29L14 28L13 28L13 27L14 27L14 26L15 26L15 29L18 29L18 28L16 28L16 27L17 27L17 26L15 26L15 25L14 25L14 24L15 24L15 23L18 23L18 22L14 22L14 20L17 20L17 21L19 21L19 20L20 20L20 19L19 19L19 18L21 18L21 20L22 20L22 21L23 21L23 22L24 22L24 21L23 21L23 20L24 20L24 19L25 19L25 18L24 18L24 19L23 19L23 18L21 18L21 17L19 17L19 16L17 16L17 15L19 15L19 14L20 14L20 12L22 12L22 11L23 11L23 10L22 10L22 9L21 9L21 8L20 8L20 9L19 9L19 6L18 6L18 5L17 5L17 6L16 6L16 5L15 5L15 4L14 4L14 3L13 3L13 2ZM10 6L10 7L11 7L11 6ZM15 6L15 7L16 7L16 8L18 8L18 6L17 6L17 7L16 7L16 6ZM20 6L20 7L21 7L21 6ZM14 8L14 9L13 9L13 11L12 11L12 10L11 10L11 11L12 11L12 12L15 12L15 10L17 10L17 11L16 11L16 12L18 12L18 13L19 13L19 12L18 12L18 10L19 10L19 11L20 11L20 10L21 10L21 11L22 11L22 10L21 10L21 9L20 9L20 10L19 10L19 9L15 9L15 8ZM29 8L29 9L30 9L30 8ZM31 8L31 10L33 10L33 9L32 9L32 8ZM1 9L1 10L2 10L2 9ZM14 9L14 10L15 10L15 9ZM6 11L6 12L7 12L7 11ZM30 11L30 12L31 12L31 11ZM29 15L29 17L27 17L27 18L28 18L28 19L29 19L29 17L30 17L30 19L31 19L31 16L30 16L30 15ZM11 16L11 17L10 17L10 19L11 19L11 20L12 20L12 21L13 21L13 20L14 20L14 19L15 19L15 18L17 18L17 20L19 20L19 19L18 19L18 18L19 18L19 17L15 17L15 18L13 18L13 17L12 17L12 16ZM11 17L11 18L12 18L12 20L13 20L13 18L12 18L12 17ZM0 19L0 25L1 25L1 19ZM25 21L25 22L27 22L27 23L28 23L28 22L27 22L27 21ZM29 21L29 22L30 22L30 21ZM25 25L25 28L28 28L28 25ZM26 26L26 27L27 27L27 26ZM19 27L19 28L20 28L20 27ZM22 28L22 30L23 30L23 28ZM29 28L29 30L30 30L30 31L31 31L31 30L30 30L30 29L31 29L31 28ZM25 29L25 30L27 30L27 29ZM27 32L27 33L28 33L28 32ZM0 0L0 7L7 7L7 0ZM1 1L1 6L6 6L6 1ZM2 2L2 5L5 5L5 2ZM26 0L26 7L33 7L33 0ZM27 1L27 6L32 6L32 1ZM28 2L28 5L31 5L31 2ZM0 26L0 33L7 33L7 26ZM1 27L1 32L6 32L6 27ZM2 28L2 31L5 31L5 28Z" fill="#000000"/></g></g></svg>
