<?xml version="1.0" encoding="UTF-8"?>
<svg xmlns="http://www.w3.org/2000/svg" version="1.1" width="300" height="300" viewBox="0 0 300 300"><rect x="0" y="0" width="300" height="300" fill="#ffffff"/><g transform="scale(8.571)"><g transform="translate(1,1)"><path fill-rule="evenodd" d="M9 0L9 1L8 1L8 2L9 2L9 3L8 3L8 4L9 4L9 5L8 5L8 7L9 7L9 8L6 8L6 9L7 9L7 10L6 10L6 11L9 11L9 10L8 10L8 9L10 9L10 8L11 8L11 6L10 6L10 4L11 4L11 5L12 5L12 4L18 4L18 5L15 5L15 6L14 6L14 5L13 5L13 6L12 6L12 7L13 7L13 6L14 6L14 7L15 7L15 9L14 9L14 8L13 8L13 9L11 9L11 10L10 10L10 11L11 11L11 10L12 10L12 12L9 12L9 13L7 13L7 12L6 12L6 13L5 13L5 14L3 14L3 12L4 12L4 10L5 10L5 8L0 8L0 9L1 9L1 10L2 10L2 11L1 11L1 12L2 12L2 14L3 14L3 15L4 15L4 16L3 16L3 17L2 17L2 15L1 15L1 14L0 14L0 19L2 19L2 18L3 18L3 20L2 20L2 23L4 23L4 24L3 24L3 25L4 25L4 24L5 24L5 20L6 20L6 21L7 21L7 22L6 22L6 23L7 23L7 24L6 24L6 25L7 25L7 24L8 24L8 27L9 27L9 28L8 28L8 33L11 33L11 32L12 32L12 33L20 33L20 32L24 32L24 33L25 33L25 32L24 32L24 31L27 31L27 30L29 30L29 32L31 32L31 33L32 33L32 32L31 32L31 31L32 31L32 30L31 30L31 29L33 29L33 28L32 28L32 26L33 26L33 24L32 24L32 26L31 26L31 27L30 27L30 25L29 25L29 24L31 24L31 23L32 23L32 22L33 22L33 21L32 21L32 20L31 20L31 19L32 19L32 18L33 18L33 17L32 17L32 16L31 16L31 15L32 15L32 14L33 14L33 13L31 13L31 15L30 15L30 13L29 13L29 12L28 12L28 11L29 11L29 10L28 10L28 11L27 11L27 12L28 12L28 13L29 13L29 14L28 14L28 16L27 16L27 13L25 13L25 14L26 14L26 16L27 16L27 17L25 17L25 16L24 16L24 17L23 17L23 15L22 15L22 13L23 13L23 14L24 14L24 13L23 13L23 12L25 12L25 11L26 11L26 10L27 10L27 9L28 9L28 8L27 8L27 9L26 9L26 8L25 8L25 6L24 6L24 8L23 8L23 5L24 5L24 4L25 4L25 3L24 3L24 2L25 2L25 1L24 1L24 0L22 0L22 1L20 1L20 0L19 0L19 1L18 1L18 0L17 0L17 1L18 1L18 2L19 2L19 1L20 1L20 2L21 2L21 3L20 3L20 4L18 4L18 3L15 3L15 2L16 2L16 1L14 1L14 0ZM10 1L10 3L9 3L9 4L10 4L10 3L11 3L11 4L12 4L12 3L11 3L11 2L13 2L13 3L14 3L14 1ZM22 1L22 2L24 2L24 1ZM21 3L21 4L20 4L20 5L18 5L18 6L17 6L17 8L16 8L16 9L15 9L15 10L16 10L16 9L17 9L17 11L16 11L16 12L18 12L18 13L15 13L15 11L14 11L14 9L13 9L13 12L12 12L12 13L13 13L13 14L11 14L11 13L9 13L9 14L8 14L8 16L9 16L9 18L8 18L8 17L6 17L6 16L7 16L7 15L6 15L6 16L4 16L4 17L3 17L3 18L5 18L5 17L6 17L6 18L8 18L8 20L7 20L7 19L6 19L6 20L7 20L7 21L8 21L8 20L11 20L11 21L13 21L13 20L14 20L14 22L11 22L11 24L10 24L10 25L9 25L9 26L10 26L10 25L13 25L13 26L11 26L11 27L10 27L10 28L9 28L9 29L10 29L10 30L9 30L9 31L13 31L13 32L14 32L14 31L13 31L13 30L14 30L14 29L15 29L15 30L16 30L16 29L17 29L17 32L20 32L20 30L18 30L18 29L21 29L21 30L22 30L22 31L24 31L24 27L22 27L22 28L21 28L21 27L20 27L20 26L17 26L17 25L15 25L15 24L16 24L16 23L17 23L17 24L19 24L19 25L21 25L21 26L24 26L24 25L22 25L22 24L21 24L21 23L20 23L20 22L19 22L19 21L20 21L20 20L21 20L21 22L22 22L22 23L24 23L24 24L28 24L28 23L30 23L30 22L31 22L31 20L29 20L29 21L27 21L27 19L26 19L26 18L25 18L25 17L24 17L24 18L23 18L23 17L22 17L22 16L20 16L20 15L21 15L21 13L22 13L22 12L23 12L23 11L24 11L24 10L25 10L25 9L24 9L24 10L23 10L23 9L22 9L22 8L21 8L21 7L22 7L22 5L23 5L23 4L24 4L24 3ZM9 6L9 7L10 7L10 6ZM15 6L15 7L16 7L16 6ZM18 6L18 8L17 8L17 9L19 9L19 10L18 10L18 12L19 12L19 13L18 13L18 14L15 14L15 13L14 13L14 12L13 12L13 13L14 13L14 14L13 14L13 15L12 15L12 17L11 17L11 15L10 15L10 14L9 14L9 16L10 16L10 18L9 18L9 19L10 19L10 18L12 18L12 19L11 19L11 20L12 20L12 19L14 19L14 20L17 20L17 21L19 21L19 20L20 20L20 19L19 19L19 18L21 18L21 20L22 20L22 21L23 21L23 22L24 22L24 21L23 21L23 20L24 20L24 19L25 19L25 18L24 18L24 19L23 19L23 18L21 18L21 17L19 17L19 16L17 16L17 15L19 15L19 14L20 14L20 12L22 12L22 11L23 11L23 10L22 10L22 9L21 9L21 8L20 8L20 9L19 9L19 6ZM20 6L20 7L21 7L21 6ZM29 8L29 9L30 9L30 8ZM31 8L31 10L33 10L33 9L32 9L32 8ZM2 9L2 10L3 10L3 9ZM20 9L20 10L19 10L19 11L20 11L20 10L21 10L21 11L22 11L22 10L21 10L21 9ZM30 11L30 12L31 12L31 11ZM6 13L6 14L7 14L7 13ZM13 15L13 16L14 16L14 17L12 17L12 18L14 18L14 19L15 19L15 18L17 18L17 20L19 20L19 19L18 19L18 18L19 18L19 17L15 17L15 16L16 16L16 15L15 15L15 16L14 16L14 15ZM29 15L29 17L27 17L27 18L28 18L28 19L29 19L29 17L30 17L30 19L31 19L31 16L30 16L30 15ZM14 17L14 18L15 18L15 17ZM0 21L0 25L1 25L1 21ZM3 21L3 22L4 22L4 21ZM9 21L9 22L10 22L10 21ZM25 21L25 22L27 22L27 23L28 23L28 22L27 22L27 21ZM29 21L29 22L30 22L30 21ZM7 22L7 23L8 23L8 24L9 24L9 23L8 23L8 22ZM14 22L14 24L13 24L13 23L12 23L12 24L13 24L13 25L14 25L14 26L15 26L15 27L14 27L14 28L12 28L12 29L11 29L11 30L12 30L12 29L14 29L14 28L15 28L15 29L16 29L16 28L17 28L17 29L18 29L18 28L17 28L17 26L15 26L15 25L14 25L14 24L15 24L15 23L16 23L16 22ZM17 22L17 23L18 23L18 22ZM25 25L25 28L28 28L28 25ZM26 26L26 27L27 27L27 26ZM19 27L19 28L20 28L20 27ZM22 28L22 30L23 30L23 28ZM29 28L29 30L30 30L30 31L31 31L31 30L30 30L30 29L31 29L31 28ZM25 29L25 30L27 30L27 29ZM27 32L27 33L28 33L28 32ZM0 0L0 7L7 7L7 0ZM1 1L1 6L6 6L6 1ZM2 2L2 5L5 5L5 2ZM26 0L26 7L33 7L33 0ZM27 1L27 6L32 6L32 1ZM28 2L28 5L31 5L31 2ZM0 26L0 33L7 33L7 26ZM1 27L1 32L6 32L6 27ZM2 28L2 31L5 31L5 28Z" fill="#000000"/></g></g></svg>
